<svg width="1024" height="1024" viewBox="0 0 1024 1024" fill="none" xmlns="http://www.w3.org/2000/svg">
<rect width="1024" height="1024" fill="white"/>
<path d="M256 192H256C247.163 192 240 209.676 240 232V792C240 814.324 247.163 832 256 832H256C272.015 832 285.166 757.614 290 672C294.834 586.386 272.015 448 256 448H256C239.985 448 226.834 575.614 222 672C217.166 768.386 239.985 832 256 832V832C424 832 560 807.324 560 792V424C560 401.676 484.599 384 384 384C283.401 384 208 401.676 208 424V232C208 209.676 229.49 192 256 192Z" fill="#2196F3"/>
<path d="M771 320L411 288C403.268 288 397 295.634 397 305V553C397 562.366 403.268 570 411 570H771C778.732 570 785 562.366 785 553V337C785 327.634 778.732 320 771 320Z" fill="#FF5722"/>
<path d="M771 640L411 608C403.268 608 397 615.634 397 625V744C397 753.366 403.268 761 411 761H771C778.732 761 785 753.366 785 744V657C785 647.634 778.732 640 771 640Z" fill="#4CAF50"/>
</svg>
